<svg xmlns="http://www.w3.org/2000/svg" viewBox="0 0 6399.9967 6399.9966">
  <path transform="matrix(3.4544719,0,0,3.5712777,-3583.0427,-6797.3148)" fill="#000000" fill-rule="nonzero" stroke="#000000" stroke-width="38" stroke-linecap="square" stroke-linejoin="miter" d="m 1747.7324,1938.5918 a 41.121718,41.121718 0 0 0 -16.0508,4.2422 l -100,49.7558 a 41.121718,41.121718 0 0 0 -22.8027,36.8165 v 1283.2578 l -66.0605,-48.7305 V 2864.082 a 41.121718,41.121718 0 0 0 -24.7793,-37.7363 l -74.711,-32.3535 a 41.121718,41.121718 0 0 0 -57.4629,37.7363 v 517.6778 a 41.121718,41.121718 0 0 0 14.7657,31.5664 l 323.0136,269.6894 a 41.121718,41.121718 0 0 0 67.4766,-31.5664 V 1979.6504 a 41.121718,41.121718 0 0 0 -43.3887,-41.0586 z m 154.5352,0 a 41.121718,41.121718 0 0 0 -43.3887,41.0586 v 1639.4453 a 41.121718,41.121718 0 0 0 60.5137,36.2617 l 600.1211,-320.9336 a 41.121718,41.121718 0 0 0 21.7285,-36.2656 l -0.1231,-1044.8574 a 41.121718,41.121718 0 0 0 -22.8027,-36.8125 l -100,-49.7559 a 41.121718,41.121718 0 0 0 -59.4394,36.8164 v 729.9121 l -67.7579,-33.8789 v -770.666 a 41.121718,41.121718 0 0 0 -22.8027,-36.8164 l -99.998,-49.7539 a 41.121718,41.121718 0 0 0 -59.4395,36.8164 v 729.2988 l -67.7559,-33.8789 v -745.1757 a 41.121718,41.121718 0 0 0 -22.8027,-36.8165 l -100.0019,-49.7558 a 41.121718,41.121718 0 0 0 -16.0508,-4.2422 z"/>
</svg>
